<mxfile host="Electron" modified="2024-10-04T10:02:11.602Z" agent="Mozilla/5.0 (Windows NT 10.0; Win64; x64) AppleWebKit/537.36 (KHTML, like Gecko) draw.io/22.1.2 Chrome/114.0.5735.289 Electron/25.9.4 Safari/537.36" etag="9hjZzFEuESATRKcRL-On" version="22.1.2" type="device">
  <diagram name="Page-1" id="9361dd3d-8414-5efd-6122-117bd74ce7a7">
    <mxGraphModel dx="2090" dy="638" grid="1" gridSize="10" guides="1" tooltips="1" connect="1" arrows="1" fold="1" page="0" pageScale="1.5" pageWidth="826" pageHeight="1169" background="none" math="0" shadow="0">
      <root>
        <mxCell id="0" />
        <mxCell id="1" parent="0" />
        <mxCell id="EZvn2xXlhBh3CEVhWgpd-1" value="User" style="swimlane;fontStyle=0;childLayout=stackLayout;horizontal=1;startSize=26;horizontalStack=0;resizeParent=1;resizeParentMax=0;resizeLast=0;collapsible=1;marginBottom=0;align=center;fontSize=14;" vertex="1" parent="1">
          <mxGeometry x="320" y="160" width="160" height="476" as="geometry" />
        </mxCell>
        <mxCell id="EZvn2xXlhBh3CEVhWgpd-2" value="id" style="text;strokeColor=none;fillColor=none;spacingLeft=4;spacingRight=4;overflow=hidden;rotatable=0;points=[[0,0.5],[1,0.5]];portConstraint=eastwest;fontSize=12;whiteSpace=wrap;html=1;" vertex="1" parent="EZvn2xXlhBh3CEVhWgpd-1">
          <mxGeometry y="26" width="160" height="30" as="geometry" />
        </mxCell>
        <mxCell id="EZvn2xXlhBh3CEVhWgpd-5" value="username" style="text;strokeColor=none;fillColor=none;spacingLeft=4;spacingRight=4;overflow=hidden;rotatable=0;points=[[0,0.5],[1,0.5]];portConstraint=eastwest;fontSize=12;whiteSpace=wrap;html=1;" vertex="1" parent="EZvn2xXlhBh3CEVhWgpd-1">
          <mxGeometry y="56" width="160" height="30" as="geometry" />
        </mxCell>
        <mxCell id="EZvn2xXlhBh3CEVhWgpd-3" value="login" style="text;strokeColor=none;fillColor=none;spacingLeft=4;spacingRight=4;overflow=hidden;rotatable=0;points=[[0,0.5],[1,0.5]];portConstraint=eastwest;fontSize=12;whiteSpace=wrap;html=1;" vertex="1" parent="EZvn2xXlhBh3CEVhWgpd-1">
          <mxGeometry y="86" width="160" height="30" as="geometry" />
        </mxCell>
        <mxCell id="EZvn2xXlhBh3CEVhWgpd-4" value="password" style="text;strokeColor=none;fillColor=none;spacingLeft=4;spacingRight=4;overflow=hidden;rotatable=0;points=[[0,0.5],[1,0.5]];portConstraint=eastwest;fontSize=12;whiteSpace=wrap;html=1;" vertex="1" parent="EZvn2xXlhBh3CEVhWgpd-1">
          <mxGeometry y="116" width="160" height="30" as="geometry" />
        </mxCell>
        <mxCell id="EZvn2xXlhBh3CEVhWgpd-19" value="photo" style="text;strokeColor=none;fillColor=none;spacingLeft=4;spacingRight=4;overflow=hidden;rotatable=0;points=[[0,0.5],[1,0.5]];portConstraint=eastwest;fontSize=12;whiteSpace=wrap;html=1;" vertex="1" parent="EZvn2xXlhBh3CEVhWgpd-1">
          <mxGeometry y="146" width="160" height="30" as="geometry" />
        </mxCell>
        <mxCell id="EZvn2xXlhBh3CEVhWgpd-17" value="quote" style="text;strokeColor=none;fillColor=none;spacingLeft=4;spacingRight=4;overflow=hidden;rotatable=0;points=[[0,0.5],[1,0.5]];portConstraint=eastwest;fontSize=12;whiteSpace=wrap;html=1;" vertex="1" parent="EZvn2xXlhBh3CEVhWgpd-1">
          <mxGeometry y="176" width="160" height="30" as="geometry" />
        </mxCell>
        <mxCell id="EZvn2xXlhBh3CEVhWgpd-42" value="friends" style="text;strokeColor=none;fillColor=none;spacingLeft=4;spacingRight=4;overflow=hidden;rotatable=0;points=[[0,0.5],[1,0.5]];portConstraint=eastwest;fontSize=12;whiteSpace=wrap;html=1;" vertex="1" parent="EZvn2xXlhBh3CEVhWgpd-1">
          <mxGeometry y="206" width="160" height="30" as="geometry" />
        </mxCell>
        <mxCell id="EZvn2xXlhBh3CEVhWgpd-33" value="last_stats" style="text;strokeColor=none;fillColor=none;spacingLeft=4;spacingRight=4;overflow=hidden;rotatable=0;points=[[0,0.5],[1,0.5]];portConstraint=eastwest;fontSize=12;whiteSpace=wrap;html=1;" vertex="1" parent="EZvn2xXlhBh3CEVhWgpd-1">
          <mxGeometry y="236" width="160" height="30" as="geometry" />
        </mxCell>
        <mxCell id="EZvn2xXlhBh3CEVhWgpd-21" value="score_rapid" style="text;strokeColor=none;fillColor=none;spacingLeft=4;spacingRight=4;overflow=hidden;rotatable=0;points=[[0,0.5],[1,0.5]];portConstraint=eastwest;fontSize=12;whiteSpace=wrap;html=1;" vertex="1" parent="EZvn2xXlhBh3CEVhWgpd-1">
          <mxGeometry y="266" width="160" height="30" as="geometry" />
        </mxCell>
        <mxCell id="EZvn2xXlhBh3CEVhWgpd-32" value="games_rapid" style="text;strokeColor=none;fillColor=none;spacingLeft=4;spacingRight=4;overflow=hidden;rotatable=0;points=[[0,0.5],[1,0.5]];portConstraint=eastwest;fontSize=12;whiteSpace=wrap;html=1;" vertex="1" parent="EZvn2xXlhBh3CEVhWgpd-1">
          <mxGeometry y="296" width="160" height="30" as="geometry" />
        </mxCell>
        <mxCell id="EZvn2xXlhBh3CEVhWgpd-36" value="score_bullet" style="text;strokeColor=none;fillColor=none;spacingLeft=4;spacingRight=4;overflow=hidden;rotatable=0;points=[[0,0.5],[1,0.5]];portConstraint=eastwest;fontSize=12;whiteSpace=wrap;html=1;" vertex="1" parent="EZvn2xXlhBh3CEVhWgpd-1">
          <mxGeometry y="326" width="160" height="30" as="geometry" />
        </mxCell>
        <mxCell id="EZvn2xXlhBh3CEVhWgpd-39" value="games_bullet" style="text;strokeColor=none;fillColor=none;spacingLeft=4;spacingRight=4;overflow=hidden;rotatable=0;points=[[0,0.5],[1,0.5]];portConstraint=eastwest;fontSize=12;whiteSpace=wrap;html=1;" vertex="1" parent="EZvn2xXlhBh3CEVhWgpd-1">
          <mxGeometry y="356" width="160" height="30" as="geometry" />
        </mxCell>
        <mxCell id="EZvn2xXlhBh3CEVhWgpd-38" value="score_correspond" style="text;strokeColor=none;fillColor=none;spacingLeft=4;spacingRight=4;overflow=hidden;rotatable=0;points=[[0,0.5],[1,0.5]];portConstraint=eastwest;fontSize=12;whiteSpace=wrap;html=1;" vertex="1" parent="EZvn2xXlhBh3CEVhWgpd-1">
          <mxGeometry y="386" width="160" height="30" as="geometry" />
        </mxCell>
        <mxCell id="EZvn2xXlhBh3CEVhWgpd-40" value="games_correspond" style="text;strokeColor=none;fillColor=none;spacingLeft=4;spacingRight=4;overflow=hidden;rotatable=0;points=[[0,0.5],[1,0.5]];portConstraint=eastwest;fontSize=12;whiteSpace=wrap;html=1;" vertex="1" parent="EZvn2xXlhBh3CEVhWgpd-1">
          <mxGeometry y="416" width="160" height="30" as="geometry" />
        </mxCell>
        <mxCell id="EZvn2xXlhBh3CEVhWgpd-41" value="puzzles_solved" style="text;strokeColor=none;fillColor=none;spacingLeft=4;spacingRight=4;overflow=hidden;rotatable=0;points=[[0,0.5],[1,0.5]];portConstraint=eastwest;fontSize=12;whiteSpace=wrap;html=1;" vertex="1" parent="EZvn2xXlhBh3CEVhWgpd-1">
          <mxGeometry y="446" width="160" height="30" as="geometry" />
        </mxCell>
        <mxCell id="EZvn2xXlhBh3CEVhWgpd-6" value="Game" style="swimlane;fontStyle=0;childLayout=stackLayout;horizontal=1;startSize=26;horizontalStack=0;resizeParent=1;resizeParentMax=0;resizeLast=0;collapsible=1;marginBottom=0;align=center;fontSize=14;" vertex="1" parent="1">
          <mxGeometry x="540" y="160" width="160" height="236" as="geometry" />
        </mxCell>
        <mxCell id="EZvn2xXlhBh3CEVhWgpd-7" value="id" style="text;strokeColor=none;fillColor=none;spacingLeft=4;spacingRight=4;overflow=hidden;rotatable=0;points=[[0,0.5],[1,0.5]];portConstraint=eastwest;fontSize=12;whiteSpace=wrap;html=1;" vertex="1" parent="EZvn2xXlhBh3CEVhWgpd-6">
          <mxGeometry y="26" width="160" height="30" as="geometry" />
        </mxCell>
        <mxCell id="EZvn2xXlhBh3CEVhWgpd-8" value="user_id" style="text;strokeColor=none;fillColor=none;spacingLeft=4;spacingRight=4;overflow=hidden;rotatable=0;points=[[0,0.5],[1,0.5]];portConstraint=eastwest;fontSize=12;whiteSpace=wrap;html=1;" vertex="1" parent="EZvn2xXlhBh3CEVhWgpd-6">
          <mxGeometry y="56" width="160" height="30" as="geometry" />
        </mxCell>
        <mxCell id="EZvn2xXlhBh3CEVhWgpd-10" value="opponent_id" style="text;strokeColor=none;fillColor=none;spacingLeft=4;spacingRight=4;overflow=hidden;rotatable=0;points=[[0,0.5],[1,0.5]];portConstraint=eastwest;fontSize=12;whiteSpace=wrap;html=1;" vertex="1" parent="EZvn2xXlhBh3CEVhWgpd-6">
          <mxGeometry y="86" width="160" height="30" as="geometry" />
        </mxCell>
        <mxCell id="EZvn2xXlhBh3CEVhWgpd-51" value="date" style="text;strokeColor=none;fillColor=none;spacingLeft=4;spacingRight=4;overflow=hidden;rotatable=0;points=[[0,0.5],[1,0.5]];portConstraint=eastwest;fontSize=12;whiteSpace=wrap;html=1;" vertex="1" parent="EZvn2xXlhBh3CEVhWgpd-6">
          <mxGeometry y="116" width="160" height="30" as="geometry" />
        </mxCell>
        <mxCell id="EZvn2xXlhBh3CEVhWgpd-12" value="color" style="text;strokeColor=none;fillColor=none;spacingLeft=4;spacingRight=4;overflow=hidden;rotatable=0;points=[[0,0.5],[1,0.5]];portConstraint=eastwest;fontSize=12;whiteSpace=wrap;html=1;" vertex="1" parent="EZvn2xXlhBh3CEVhWgpd-6">
          <mxGeometry y="146" width="160" height="30" as="geometry" />
        </mxCell>
        <mxCell id="EZvn2xXlhBh3CEVhWgpd-11" value="status" style="text;strokeColor=none;fillColor=none;spacingLeft=4;spacingRight=4;overflow=hidden;rotatable=0;points=[[0,0.5],[1,0.5]];portConstraint=eastwest;fontSize=12;whiteSpace=wrap;html=1;" vertex="1" parent="EZvn2xXlhBh3CEVhWgpd-6">
          <mxGeometry y="176" width="160" height="30" as="geometry" />
        </mxCell>
        <mxCell id="EZvn2xXlhBh3CEVhWgpd-9" value="context" style="text;strokeColor=none;fillColor=none;spacingLeft=4;spacingRight=4;overflow=hidden;rotatable=0;points=[[0,0.5],[1,0.5]];portConstraint=eastwest;fontSize=12;whiteSpace=wrap;html=1;" vertex="1" parent="EZvn2xXlhBh3CEVhWgpd-6">
          <mxGeometry y="206" width="160" height="30" as="geometry" />
        </mxCell>
        <mxCell id="EZvn2xXlhBh3CEVhWgpd-23" value="Puzzle" style="swimlane;fontStyle=0;childLayout=stackLayout;horizontal=1;startSize=26;horizontalStack=0;resizeParent=1;resizeParentMax=0;resizeLast=0;collapsible=1;marginBottom=0;align=center;fontSize=14;" vertex="1" parent="1">
          <mxGeometry x="540" y="440" width="160" height="176" as="geometry" />
        </mxCell>
        <mxCell id="EZvn2xXlhBh3CEVhWgpd-24" value="id" style="text;strokeColor=none;fillColor=none;spacingLeft=4;spacingRight=4;overflow=hidden;rotatable=0;points=[[0,0.5],[1,0.5]];portConstraint=eastwest;fontSize=12;whiteSpace=wrap;html=1;" vertex="1" parent="EZvn2xXlhBh3CEVhWgpd-23">
          <mxGeometry y="26" width="160" height="30" as="geometry" />
        </mxCell>
        <mxCell id="EZvn2xXlhBh3CEVhWgpd-25" value="title" style="text;strokeColor=none;fillColor=none;spacingLeft=4;spacingRight=4;overflow=hidden;rotatable=0;points=[[0,0.5],[1,0.5]];portConstraint=eastwest;fontSize=12;whiteSpace=wrap;html=1;" vertex="1" parent="EZvn2xXlhBh3CEVhWgpd-23">
          <mxGeometry y="56" width="160" height="30" as="geometry" />
        </mxCell>
        <mxCell id="EZvn2xXlhBh3CEVhWgpd-29" value="context" style="text;strokeColor=none;fillColor=none;spacingLeft=4;spacingRight=4;overflow=hidden;rotatable=0;points=[[0,0.5],[1,0.5]];portConstraint=eastwest;fontSize=12;whiteSpace=wrap;html=1;" vertex="1" parent="EZvn2xXlhBh3CEVhWgpd-23">
          <mxGeometry y="86" width="160" height="30" as="geometry" />
        </mxCell>
        <mxCell id="EZvn2xXlhBh3CEVhWgpd-26" value="score" style="text;strokeColor=none;fillColor=none;spacingLeft=4;spacingRight=4;overflow=hidden;rotatable=0;points=[[0,0.5],[1,0.5]];portConstraint=eastwest;fontSize=12;whiteSpace=wrap;html=1;" vertex="1" parent="EZvn2xXlhBh3CEVhWgpd-23">
          <mxGeometry y="116" width="160" height="30" as="geometry" />
        </mxCell>
        <mxCell id="EZvn2xXlhBh3CEVhWgpd-52" value="date" style="text;strokeColor=none;fillColor=none;spacingLeft=4;spacingRight=4;overflow=hidden;rotatable=0;points=[[0,0.5],[1,0.5]];portConstraint=eastwest;fontSize=12;whiteSpace=wrap;html=1;" vertex="1" parent="EZvn2xXlhBh3CEVhWgpd-23">
          <mxGeometry y="146" width="160" height="30" as="geometry" />
        </mxCell>
        <mxCell id="EZvn2xXlhBh3CEVhWgpd-43" value="" style="edgeStyle=entityRelationEdgeStyle;fontSize=12;html=1;endArrow=ERoneToMany;startArrow=ERmandOne;rounded=0;" edge="1" parent="1" source="EZvn2xXlhBh3CEVhWgpd-1" target="EZvn2xXlhBh3CEVhWgpd-6">
          <mxGeometry width="100" height="100" relative="1" as="geometry">
            <mxPoint x="640" y="440" as="sourcePoint" />
            <mxPoint x="740" y="340" as="targetPoint" />
          </mxGeometry>
        </mxCell>
        <mxCell id="EZvn2xXlhBh3CEVhWgpd-44" value="" style="edgeStyle=entityRelationEdgeStyle;fontSize=12;html=1;endArrow=ERoneToMany;startArrow=ERmandOne;rounded=0;" edge="1" parent="1" source="EZvn2xXlhBh3CEVhWgpd-1" target="EZvn2xXlhBh3CEVhWgpd-23">
          <mxGeometry width="100" height="100" relative="1" as="geometry">
            <mxPoint x="490" y="408" as="sourcePoint" />
            <mxPoint x="570" y="273" as="targetPoint" />
          </mxGeometry>
        </mxCell>
        <mxCell id="EZvn2xXlhBh3CEVhWgpd-46" value="App" style="whiteSpace=wrap;html=1;align=center;fontStyle=1" vertex="1" parent="1">
          <mxGeometry x="-400" y="1000" width="120" height="120" as="geometry" />
        </mxCell>
        <mxCell id="EZvn2xXlhBh3CEVhWgpd-54" value="FireBase" style="swimlane;whiteSpace=wrap;html=1;" vertex="1" parent="1">
          <mxGeometry x="-520" y="860" width="360" height="60" as="geometry" />
        </mxCell>
        <mxCell id="EZvn2xXlhBh3CEVhWgpd-48" value="Auth" style="whiteSpace=wrap;html=1;align=center;" vertex="1" parent="EZvn2xXlhBh3CEVhWgpd-54">
          <mxGeometry y="20" width="120" height="40" as="geometry" />
        </mxCell>
        <mxCell id="EZvn2xXlhBh3CEVhWgpd-50" value="Image DB noSQL" style="whiteSpace=wrap;html=1;align=center;" vertex="1" parent="EZvn2xXlhBh3CEVhWgpd-54">
          <mxGeometry x="120" y="20" width="120" height="40" as="geometry" />
        </mxCell>
        <mxCell id="EZvn2xXlhBh3CEVhWgpd-53" value="Data DB SQL" style="whiteSpace=wrap;html=1;align=center;" vertex="1" parent="EZvn2xXlhBh3CEVhWgpd-54">
          <mxGeometry x="240" y="20" width="120" height="40" as="geometry" />
        </mxCell>
        <mxCell id="EZvn2xXlhBh3CEVhWgpd-60" value="" style="endArrow=none;html=1;rounded=0;edgeStyle=orthogonalEdgeStyle;" edge="1" parent="1" source="EZvn2xXlhBh3CEVhWgpd-54" target="EZvn2xXlhBh3CEVhWgpd-46">
          <mxGeometry relative="1" as="geometry">
            <mxPoint x="-510" y="910" as="sourcePoint" />
            <mxPoint x="-330" y="1010" as="targetPoint" />
          </mxGeometry>
        </mxCell>
        <mxCell id="EZvn2xXlhBh3CEVhWgpd-66" value="" style="endArrow=none;html=1;rounded=0;edgeStyle=orthogonalEdgeStyle;exitX=0.5;exitY=1;exitDx=0;exitDy=0;" edge="1" parent="1" source="EZvn2xXlhBh3CEVhWgpd-86" target="EZvn2xXlhBh3CEVhWgpd-46">
          <mxGeometry relative="1" as="geometry">
            <mxPoint x="-60" y="920" as="sourcePoint" />
            <mxPoint x="-330" y="1010" as="targetPoint" />
          </mxGeometry>
        </mxCell>
        <mxCell id="EZvn2xXlhBh3CEVhWgpd-67" value="" style="endArrow=none;html=1;rounded=0;edgeStyle=orthogonalEdgeStyle;exitX=0.5;exitY=1;exitDx=0;exitDy=0;" edge="1" parent="1" source="EZvn2xXlhBh3CEVhWgpd-84" target="EZvn2xXlhBh3CEVhWgpd-46">
          <mxGeometry relative="1" as="geometry">
            <mxPoint x="-50" y="930" as="sourcePoint" />
            <mxPoint x="-330" y="1010" as="targetPoint" />
          </mxGeometry>
        </mxCell>
        <mxCell id="EZvn2xXlhBh3CEVhWgpd-68" value="Game Core" style="whiteSpace=wrap;html=1;align=center;" vertex="1" parent="1">
          <mxGeometry x="-380" y="1080" width="80" height="20" as="geometry" />
        </mxCell>
        <mxCell id="EZvn2xXlhBh3CEVhWgpd-69" value="Mobile App" style="whiteSpace=wrap;html=1;align=center;" vertex="1" parent="1">
          <mxGeometry x="-380" y="1020" width="80" height="20" as="geometry" />
        </mxCell>
        <mxCell id="EZvn2xXlhBh3CEVhWgpd-70" value="navigation" style="ellipse;whiteSpace=wrap;html=1;align=center;" vertex="1" parent="1">
          <mxGeometry x="-680" y="1160" width="120" height="40" as="geometry" />
        </mxCell>
        <mxCell id="EZvn2xXlhBh3CEVhWgpd-71" value="state manager" style="ellipse;whiteSpace=wrap;html=1;align=center;" vertex="1" parent="1">
          <mxGeometry x="-680" y="1220" width="120" height="40" as="geometry" />
        </mxCell>
        <mxCell id="EZvn2xXlhBh3CEVhWgpd-72" value="internationalization" style="ellipse;whiteSpace=wrap;html=1;align=center;" vertex="1" parent="1">
          <mxGeometry x="-680" y="1400" width="120" height="40" as="geometry" />
        </mxCell>
        <mxCell id="EZvn2xXlhBh3CEVhWgpd-73" value="native APIs" style="ellipse;whiteSpace=wrap;html=1;align=center;" vertex="1" parent="1">
          <mxGeometry x="-680" y="1340" width="120" height="40" as="geometry" />
        </mxCell>
        <mxCell id="EZvn2xXlhBh3CEVhWgpd-74" value="animation (+D&amp;amp;D)" style="ellipse;whiteSpace=wrap;html=1;align=center;" vertex="1" parent="1">
          <mxGeometry x="-680" y="1460" width="120" height="40" as="geometry" />
        </mxCell>
        <mxCell id="EZvn2xXlhBh3CEVhWgpd-75" value="pagination" style="ellipse;whiteSpace=wrap;html=1;align=center;" vertex="1" parent="1">
          <mxGeometry x="-680" y="1280" width="120" height="40" as="geometry" />
        </mxCell>
        <mxCell id="EZvn2xXlhBh3CEVhWgpd-82" value="Error UI" style="ellipse;whiteSpace=wrap;html=1;align=center;" vertex="1" parent="1">
          <mxGeometry x="-680" y="1520" width="120" height="40" as="geometry" />
        </mxCell>
        <mxCell id="EZvn2xXlhBh3CEVhWgpd-84" value="Lichess" style="swimlane;whiteSpace=wrap;html=1;" vertex="1" parent="1">
          <mxGeometry x="-680" y="860" width="120" height="60" as="geometry" />
        </mxCell>
        <mxCell id="EZvn2xXlhBh3CEVhWgpd-47" value="Game Sevices API" style="whiteSpace=wrap;html=1;align=center;" vertex="1" parent="EZvn2xXlhBh3CEVhWgpd-84">
          <mxGeometry y="20" width="120" height="40" as="geometry" />
        </mxCell>
        <mxCell id="EZvn2xXlhBh3CEVhWgpd-85" value="Notifications" style="swimlane;whiteSpace=wrap;html=1;" vertex="1" parent="1">
          <mxGeometry x="-120" y="860" width="120" height="60" as="geometry" />
        </mxCell>
        <mxCell id="EZvn2xXlhBh3CEVhWgpd-86" value="Push Notifications" style="whiteSpace=wrap;html=1;align=center;" vertex="1" parent="EZvn2xXlhBh3CEVhWgpd-85">
          <mxGeometry y="20" width="120" height="40" as="geometry" />
        </mxCell>
      </root>
    </mxGraphModel>
  </diagram>
</mxfile>
